<svg width="120" height="120" viewBox="0 0 120 120" fill="none" xmlns="http://www.w3.org/2000/svg">
<path d="M120 0H0V120H120V0Z" fill="white"/>
<path d="M54.24 12H50.4V15.84H54.24V12Z" fill="black"/>
<path d="M73.44 12H69.6V15.84H73.44V12Z" fill="black"/>
<path d="M50.4 15.84L46.56 15.84V19.68H50.4V15.84Z" fill="black"/>
<path d="M69.6 15.84L65.76 15.84V19.68H69.6L69.6 15.84Z" fill="black"/>
<path d="M46.56 19.68H42.72V23.52H46.56L46.56 19.68Z" fill="black"/>
<path d="M58.08 19.68H54.24V23.52H58.08V19.68Z" fill="black"/>
<path d="M69.6 19.68H65.76V23.52H69.6V19.68Z" fill="black"/>
<path d="M73.44 19.68H69.6V23.52H73.44V19.68Z" fill="black"/>
<path d="M77.28 19.68H73.44V23.52H77.28V19.68Z" fill="black"/>
<path d="M50.4 23.52H46.56L46.56 27.36H50.4V23.52Z" fill="black"/>
<path d="M61.92 23.52H58.08V27.36H61.92V23.52Z" fill="black"/>
<path d="M73.44 23.52H69.6L69.6 27.36H73.44V23.52Z" fill="black"/>
<path d="M77.28 23.52H73.44V27.36H77.28V23.52Z" fill="black"/>
<path d="M50.4 27.36H46.56V31.2H50.4V27.36Z" fill="black"/>
<path d="M61.92 27.36H58.08V31.2H61.92V27.36Z" fill="black"/>
<path d="M69.6 27.36L65.76 27.36V31.2H69.6L69.6 27.36Z" fill="black"/>
<path d="M54.24 31.2L50.4 31.2V35.04H54.24V31.2Z" fill="black"/>
<path d="M58.08 31.2L54.24 31.2V35.04H58.08V31.2Z" fill="black"/>
<path d="M61.92 31.2H58.08V35.04H61.92V31.2Z" fill="black"/>
<path d="M69.6 31.2H65.76V35.04H69.6V31.2Z" fill="black"/>
<path d="M73.44 31.2L69.6 31.2V35.04H73.44V31.2Z" fill="black"/>
<path d="M46.56 35.04H42.72V38.88H46.56V35.04Z" fill="black"/>
<path d="M54.24 35.04H50.4V38.88H54.24V35.04Z" fill="black"/>
<path d="M61.92 35.04H58.08V38.88H61.92V35.04Z" fill="black"/>
<path d="M69.6 35.04H65.76V38.88H69.6V35.04Z" fill="black"/>
<path d="M77.28 35.04H73.44V38.88H77.28V35.04Z" fill="black"/>
<path d="M46.56 38.88H42.72V42.72H46.56V38.88Z" fill="black"/>
<path d="M58.08 38.88H54.24V42.72H58.08V38.88Z" fill="black"/>
<path d="M65.76 38.88H61.92L61.92 42.72H65.76V38.88Z" fill="black"/>
<path d="M77.28 38.88H73.44V42.72H77.28V38.88Z" fill="black"/>
<path d="M15.84 42.72H12V46.56H15.84V42.72Z" fill="black"/>
<path d="M19.68 42.72H15.84V46.56H19.68V42.72Z" fill="black"/>
<path d="M23.52 42.72H19.68V46.56H23.52V42.72Z" fill="black"/>
<path d="M31.2 42.72H27.36V46.56H31.2V42.72Z" fill="black"/>
<path d="M35.04 42.72H31.2V46.56H35.04V42.72Z" fill="black"/>
<path d="M38.88 42.72H35.04V46.56H38.88V42.72Z" fill="black"/>
<path d="M42.72 42.72L38.88 42.72V46.56H42.72L42.72 42.72Z" fill="black"/>
<path d="M46.56 42.72H42.72L42.72 46.56H46.56V42.72Z" fill="black"/>
<path d="M61.92 42.72H58.08V46.56H61.92L61.92 42.72Z" fill="black"/>
<path d="M65.76 42.72H61.92L61.92 46.56H65.76V42.72Z" fill="black"/>
<path d="M77.28 42.72H73.44V46.56H77.28V42.72Z" fill="black"/>
<path d="M81.12 42.72L77.28 42.72V46.56H81.12V42.72Z" fill="black"/>
<path d="M84.96 42.72H81.12V46.56H84.96V42.72Z" fill="black"/>
<path d="M100.32 42.72H96.48V46.56H100.32V42.72Z" fill="black"/>
<path d="M15.84 46.56H12V50.4H15.84V46.56Z" fill="black"/>
<path d="M27.36 46.56H23.52V50.4H27.36L27.36 46.56Z" fill="black"/>
<path d="M31.2 46.56H27.36L27.36 50.4H31.2V46.56Z" fill="black"/>
<path d="M35.04 46.56H31.2V50.4H35.04V46.56Z" fill="black"/>
<path d="M42.72 46.56H38.88V50.4H42.72V46.56Z" fill="black"/>
<path d="M50.4 46.56L46.56 46.56L46.56 50.4H50.4V46.56Z" fill="black"/>
<path d="M58.08 46.56L54.24 46.56V50.4H58.08V46.56Z" fill="black"/>
<path d="M61.92 46.56H58.08V50.4H61.92V46.56Z" fill="black"/>
<path d="M65.76 46.56H61.92V50.4H65.76V46.56Z" fill="black"/>
<path d="M73.44 46.56L69.6 46.56V50.4H73.44V46.56Z" fill="black"/>
<path d="M77.28 46.56H73.44V50.4H77.28V46.56Z" fill="black"/>
<path d="M84.96 46.56H81.12L81.12 50.4H84.96V46.56Z" fill="black"/>
<path d="M92.64 46.56H88.8V50.4H92.64V46.56Z" fill="black"/>
<path d="M104.16 46.56L100.32 46.56L100.32 50.4H104.16V46.56Z" fill="black"/>
<path d="M15.84 50.4H12V54.24H15.84V50.4Z" fill="black"/>
<path d="M19.68 50.4H15.84V54.24H19.68V50.4Z" fill="black"/>
<path d="M27.36 50.4H23.52V54.24H27.36V50.4Z" fill="black"/>
<path d="M31.2 50.4H27.36V54.24H31.2V50.4Z" fill="black"/>
<path d="M38.88 50.4H35.04V54.24H38.88V50.4Z" fill="black"/>
<path d="M42.72 50.4H38.88V54.24H42.72V50.4Z" fill="black"/>
<path d="M46.56 50.4H42.72V54.24H46.56L46.56 50.4Z" fill="black"/>
<path d="M54.24 50.4H50.4V54.24H54.24V50.4Z" fill="black"/>
<path d="M58.08 50.4H54.24V54.24H58.08V50.4Z" fill="black"/>
<path d="M61.92 50.4H58.08V54.24H61.92V50.4Z" fill="black"/>
<path d="M65.76 50.4H61.92V54.24H65.76V50.4Z" fill="black"/>
<path d="M77.28 50.4H73.44V54.24H77.28V50.4Z" fill="black"/>
<path d="M81.12 50.4H77.28V54.24H81.12L81.12 50.4Z" fill="black"/>
<path d="M84.96 50.4H81.12L81.12 54.24H84.96V50.4Z" fill="black"/>
<path d="M96.48 50.4H92.64V54.24H96.48V50.4Z" fill="black"/>
<path d="M19.68 54.24H15.84L15.84 58.08H19.68V54.24Z" fill="black"/>
<path d="M27.36 54.24H23.52V58.08H27.36V54.24Z" fill="black"/>
<path d="M35.04 54.24H31.2L31.2 58.08H35.04V54.24Z" fill="black"/>
<path d="M42.72 54.24H38.88V58.08H42.72V54.24Z" fill="black"/>
<path d="M50.4 54.24H46.56L46.56 58.08H50.4V54.24Z" fill="black"/>
<path d="M54.24 54.24H50.4V58.08H54.24V54.24Z" fill="black"/>
<path d="M61.92 54.24H58.08V58.08H61.92V54.24Z" fill="black"/>
<path d="M65.76 54.24H61.92V58.08H65.76V54.24Z" fill="black"/>
<path d="M69.6 54.24H65.76V58.08H69.6V54.24Z" fill="black"/>
<path d="M77.28 54.24H73.44V58.08H77.28V54.24Z" fill="black"/>
<path d="M84.96 54.24H81.12L81.12 58.08H84.96V54.24Z" fill="black"/>
<path d="M88.8 54.24H84.96V58.08H88.8V54.24Z" fill="black"/>
<path d="M104.16 54.24H100.32V58.08H104.16V54.24Z" fill="black"/>
<path d="M108 54.24H104.16V58.08H108V54.24Z" fill="black"/>
<path d="M15.84 58.08H12V61.92H15.84L15.84 58.08Z" fill="black"/>
<path d="M23.52 58.08H19.68L19.68 61.92H23.52V58.08Z" fill="black"/>
<path d="M35.04 58.08H31.2V61.92H35.04V58.08Z" fill="black"/>
<path d="M38.88 58.08H35.04V61.92H38.88V58.08Z" fill="black"/>
<path d="M46.56 58.08H42.72L42.72 61.92H46.56L46.56 58.08Z" fill="black"/>
<path d="M54.24 58.08H50.4V61.92H54.24V58.08Z" fill="black"/>
<path d="M58.08 58.08H54.24V61.92H58.08V58.08Z" fill="black"/>
<path d="M65.76 58.08H61.92L61.92 61.92H65.76V58.08Z" fill="black"/>
<path d="M77.28 58.08H73.44V61.92H77.28V58.08Z" fill="black"/>
<path d="M84.96 58.08H81.12V61.92H84.96V58.08Z" fill="black"/>
<path d="M88.8 58.08H84.96V61.92H88.8V58.08Z" fill="black"/>
<path d="M100.32 58.08H96.48V61.92H100.32L100.32 58.08Z" fill="black"/>
<path d="M104.16 58.08H100.32L100.32 61.92H104.16V58.08Z" fill="black"/>
<path d="M108 58.08H104.16V61.92H108V58.08Z" fill="black"/>
<path d="M23.52 61.92H19.68V65.76H23.52V61.92Z" fill="black"/>
<path d="M27.36 61.92L23.52 61.92V65.76H27.36V61.92Z" fill="black"/>
<path d="M31.2 61.92L27.36 61.92V65.76H31.2L31.2 61.92Z" fill="black"/>
<path d="M35.04 61.92H31.2L31.2 65.76H35.04V61.92Z" fill="black"/>
<path d="M42.72 61.92H38.88V65.76H42.72L42.72 61.92Z" fill="black"/>
<path d="M54.24 61.92H50.4V65.76H54.24V61.92Z" fill="black"/>
<path d="M58.08 61.92H54.24V65.76H58.08V61.92Z" fill="black"/>
<path d="M65.76 61.92H61.92V65.76H65.76V61.92Z" fill="black"/>
<path d="M69.6 61.92L65.76 61.92V65.76H69.6V61.92Z" fill="black"/>
<path d="M77.28 61.92H73.44V65.76H77.28V61.92Z" fill="black"/>
<path d="M92.64 61.92L88.8 61.92V65.76H92.64V61.92Z" fill="black"/>
<path d="M104.16 61.92H100.32L100.32 65.76H104.16V61.92Z" fill="black"/>
<path d="M108 61.92H104.16V65.76H108V61.92Z" fill="black"/>
<path d="M15.84 65.76H12V69.6H15.84V65.76Z" fill="black"/>
<path d="M23.52 65.76H19.68V69.6H23.52V65.76Z" fill="black"/>
<path d="M31.2 65.76H27.36L27.36 69.6H31.2V65.76Z" fill="black"/>
<path d="M38.88 65.76H35.04V69.6H38.88V65.76Z" fill="black"/>
<path d="M46.56 65.76H42.72L42.72 69.6H46.56V65.76Z" fill="black"/>
<path d="M54.24 65.76H50.4V69.6H54.24V65.76Z" fill="black"/>
<path d="M65.76 65.76H61.92V69.6H65.76V65.76Z" fill="black"/>
<path d="M73.44 65.76H69.6L69.6 69.6H73.44V65.76Z" fill="black"/>
<path d="M77.28 65.76H73.44V69.6H77.28V65.76Z" fill="black"/>
<path d="M81.12 65.76H77.28V69.6H81.12V65.76Z" fill="black"/>
<path d="M84.96 65.76H81.12V69.6H84.96V65.76Z" fill="black"/>
<path d="M96.48 65.76H92.64V69.6H96.48V65.76Z" fill="black"/>
<path d="M104.16 65.76H100.32V69.6H104.16V65.76Z" fill="black"/>
<path d="M108 65.76H104.16V69.6H108V65.76Z" fill="black"/>
<path d="M19.68 69.6H15.84L15.84 73.44H19.68L19.68 69.6Z" fill="black"/>
<path d="M23.52 69.6H19.68L19.68 73.44H23.52V69.6Z" fill="black"/>
<path d="M27.36 69.6H23.52V73.44H27.36L27.36 69.6Z" fill="black"/>
<path d="M31.2 69.6H27.36L27.36 73.44H31.2V69.6Z" fill="black"/>
<path d="M35.04 69.6H31.2V73.44H35.04V69.6Z" fill="black"/>
<path d="M42.72 69.6H38.88V73.44H42.72L42.72 69.6Z" fill="black"/>
<path d="M58.08 69.6L54.24 69.6V73.44H58.08V69.6Z" fill="black"/>
<path d="M65.76 69.6H61.92V73.44H65.76V69.6Z" fill="black"/>
<path d="M69.6 69.6H65.76V73.44H69.6L69.6 69.6Z" fill="black"/>
<path d="M84.96 69.6H81.12L81.12 73.44H84.96V69.6Z" fill="black"/>
<path d="M88.8 69.6L84.96 69.6V73.44H88.8V69.6Z" fill="black"/>
<path d="M15.84 73.44L12 73.44V77.28H15.84L15.84 73.44Z" fill="black"/>
<path d="M27.36 73.44H23.52V77.28H27.36V73.44Z" fill="black"/>
<path d="M31.2 73.44H27.36V77.28H31.2V73.44Z" fill="black"/>
<path d="M35.04 73.44H31.2V77.28H35.04V73.44Z" fill="black"/>
<path d="M38.88 73.44H35.04V77.28H38.88V73.44Z" fill="black"/>
<path d="M50.4 73.44H46.56V77.28H50.4V73.44Z" fill="black"/>
<path d="M54.24 73.44L50.4 73.44V77.28H54.24V73.44Z" fill="black"/>
<path d="M61.92 73.44H58.08V77.28H61.92L61.92 73.44Z" fill="black"/>
<path d="M65.76 73.44H61.92L61.92 77.28H65.76V73.44Z" fill="black"/>
<path d="M69.6 73.44H65.76V77.28H69.6V73.44Z" fill="black"/>
<path d="M77.28 73.44H73.44V77.28H77.28V73.44Z" fill="black"/>
<path d="M81.12 73.44L77.28 73.44V77.28H81.12L81.12 73.44Z" fill="black"/>
<path d="M84.96 73.44H81.12L81.12 77.28H84.96V73.44Z" fill="black"/>
<path d="M88.8 73.44H84.96V77.28H88.8V73.44Z" fill="black"/>
<path d="M92.64 73.44L88.8 73.44V77.28H92.64V73.44Z" fill="black"/>
<path d="M100.32 73.44H96.48V77.28H100.32V73.44Z" fill="black"/>
<path d="M108 73.44H104.16V77.28H108V73.44Z" fill="black"/>
<path d="M46.56 77.28L42.72 77.28V81.12H46.56L46.56 77.28Z" fill="black"/>
<path d="M50.4 77.28H46.56L46.56 81.12H50.4V77.28Z" fill="black"/>
<path d="M58.08 77.28H54.24V81.12H58.08V77.28Z" fill="black"/>
<path d="M61.92 77.28H58.08V81.12H61.92V77.28Z" fill="black"/>
<path d="M65.76 77.28H61.92V81.12H65.76V77.28Z" fill="black"/>
<path d="M69.6 77.28H65.76V81.12H69.6V77.28Z" fill="black"/>
<path d="M77.28 77.28H73.44V81.12H77.28V77.28Z" fill="black"/>
<path d="M92.64 77.28H88.8V81.12H92.64V77.28Z" fill="black"/>
<path d="M104.16 77.28H100.32L100.32 81.12H104.16V77.28Z" fill="black"/>
<path d="M46.56 81.12H42.72V84.96H46.56V81.12Z" fill="black"/>
<path d="M50.4 81.12H46.56V84.96H50.4V81.12Z" fill="black"/>
<path d="M58.08 81.12H54.24V84.96H58.08V81.12Z" fill="black"/>
<path d="M61.92 81.12H58.08V84.96H61.92V81.12Z" fill="black"/>
<path d="M73.44 81.12H69.6L69.6 84.96H73.44V81.12Z" fill="black"/>
<path d="M77.28 81.12H73.44V84.96H77.28V81.12Z" fill="black"/>
<path d="M84.96 81.12H81.12V84.96H84.96V81.12Z" fill="black"/>
<path d="M92.64 81.12H88.8V84.96H92.64V81.12Z" fill="black"/>
<path d="M96.48 81.12L92.64 81.12V84.96H96.48V81.12Z" fill="black"/>
<path d="M104.16 81.12H100.32V84.96H104.16V81.12Z" fill="black"/>
<path d="M108 81.12L104.16 81.12V84.96H108V81.12Z" fill="black"/>
<path d="M46.56 84.96H42.72V88.8H46.56V84.96Z" fill="black"/>
<path d="M54.24 84.96H50.4V88.8H54.24V84.96Z" fill="black"/>
<path d="M61.92 84.96H58.08V88.8H61.92V84.96Z" fill="black"/>
<path d="M77.28 84.96H73.44V88.8H77.28V84.96Z" fill="black"/>
<path d="M92.64 84.96H88.8V88.8H92.64V84.96Z" fill="black"/>
<path d="M96.48 84.96H92.64V88.8H96.48V84.96Z" fill="black"/>
<path d="M104.16 84.96H100.32V88.8H104.16V84.96Z" fill="black"/>
<path d="M108 84.96H104.16V88.8H108V84.96Z" fill="black"/>
<path d="M46.56 88.8H42.72V92.64H46.56V88.8Z" fill="black"/>
<path d="M58.08 88.8H54.24V92.64H58.08V88.8Z" fill="black"/>
<path d="M61.92 88.8H58.08V92.64H61.92V88.8Z" fill="black"/>
<path d="M65.76 88.8H61.92V92.64H65.76V88.8Z" fill="black"/>
<path d="M69.6 88.8H65.76V92.64H69.6V88.8Z" fill="black"/>
<path d="M73.44 88.8H69.6V92.64H73.44V88.8Z" fill="black"/>
<path d="M77.28 88.8H73.44V92.64H77.28V88.8Z" fill="black"/>
<path d="M81.12 88.8H77.28V92.64H81.12V88.8Z" fill="black"/>
<path d="M84.96 88.8H81.12V92.64H84.96V88.8Z" fill="black"/>
<path d="M88.8 88.8H84.96V92.64H88.8V88.8Z" fill="black"/>
<path d="M92.64 88.8H88.8V92.64H92.64V88.8Z" fill="black"/>
<path d="M100.32 88.8H96.48V92.64H100.32L100.32 88.8Z" fill="black"/>
<path d="M50.4 92.64H46.56L46.56 96.48H50.4V92.64Z" fill="black"/>
<path d="M58.08 92.64H54.24V96.48H58.08V92.64Z" fill="black"/>
<path d="M65.76 92.64H61.92L61.92 96.48H65.76V92.64Z" fill="black"/>
<path d="M73.44 92.64H69.6L69.6 96.48H73.44V92.64Z" fill="black"/>
<path d="M77.28 92.64H73.44V96.48H77.28V92.64Z" fill="black"/>
<path d="M81.12 92.64H77.28V96.48H81.12V92.64Z" fill="black"/>
<path d="M88.8 92.64H84.96L84.96 96.48H88.8V92.64Z" fill="black"/>
<path d="M92.64 92.64H88.8V96.48H92.64V92.64Z" fill="black"/>
<path d="M46.56 96.48H42.72V100.32H46.56L46.56 96.48Z" fill="black"/>
<path d="M50.4 96.48H46.56L46.56 100.32H50.4V96.48Z" fill="black"/>
<path d="M61.92 96.48H58.08V100.32H61.92L61.92 96.48Z" fill="black"/>
<path d="M65.76 96.48H61.92L61.92 100.32H65.76V96.48Z" fill="black"/>
<path d="M69.6 96.48H65.76V100.32H69.6L69.6 96.48Z" fill="black"/>
<path d="M73.44 96.48H69.6L69.6 100.32H73.44V96.48Z" fill="black"/>
<path d="M77.28 96.48H73.44V100.32H77.28V96.48Z" fill="black"/>
<path d="M96.48 96.48H92.64V100.32H96.48V96.48Z" fill="black"/>
<path d="M108 96.48H104.16V100.32H108V96.48Z" fill="black"/>
<path d="M46.56 100.32H42.72V104.16H46.56V100.32Z" fill="black"/>
<path d="M58.08 100.32L54.24 100.32V104.16H58.08V100.32Z" fill="black"/>
<path d="M65.76 100.32H61.92L61.92 104.16H65.76V100.32Z" fill="black"/>
<path d="M69.6 100.32H65.76V104.16H69.6V100.32Z" fill="black"/>
<path d="M77.28 100.32H73.44V104.16H77.28V100.32Z" fill="black"/>
<path d="M92.64 100.32L88.8 100.32V104.16H92.64V100.32Z" fill="black"/>
<path d="M96.48 100.32H92.64V104.16H96.48V100.32Z" fill="black"/>
<path d="M108 100.32H104.16V104.16H108V100.32Z" fill="black"/>
<path d="M46.56 104.16H42.72V108H46.56V104.16Z" fill="black"/>
<path d="M50.4 104.16H46.56V108H50.4V104.16Z" fill="black"/>
<path d="M54.24 104.16H50.4V108H54.24V104.16Z" fill="black"/>
<path d="M65.76 104.16H61.92V108H65.76V104.16Z" fill="black"/>
<path d="M69.6 104.16H65.76V108H69.6V104.16Z" fill="black"/>
<path d="M77.28 104.16H73.44V108H77.28V104.16Z" fill="black"/>
<path d="M92.64 104.16H88.8V108H92.64V104.16Z" fill="black"/>
<path d="M96.48 104.16H92.64V108H96.48V104.16Z" fill="black"/>
<path d="M104.16 104.16H100.32V108H104.16V104.16Z" fill="black"/>
<path d="M108 104.16H104.16V108H108V104.16Z" fill="black"/>
<path d="M12.8138 11.9959C12.3645 11.9959 11.9959 12.3645 11.9959 12.8138V38.0657C11.9959 38.5149 12.3607 38.8836 12.8138 38.8836H38.0656C38.5149 38.8836 38.8836 38.5188 38.8836 38.0657V12.8138C38.8836 12.3645 38.5188 11.9959 38.0656 11.9959H12.8138ZM35.0397 34.5713C35.0397 34.8324 34.8285 35.0397 34.5712 35.0397H16.3082C16.0471 35.0397 15.8397 34.8285 15.8397 34.5713V16.3082C15.8397 16.0471 16.0509 15.8397 16.3082 15.8397H34.5712C34.8324 15.8397 35.0397 16.0509 35.0397 16.3082V34.5713Z" fill="black"/>
<path d="M31.2 20.4941C31.2 20.0448 30.8352 19.6762 30.3821 19.6762H20.4941C20.0448 19.6762 19.6762 20.041 19.6762 20.4941V30.3859C19.6762 30.8352 20.041 31.2038 20.4941 31.2038H30.3821C30.8314 31.2038 31.2 30.839 31.2 30.3859V20.4941Z" fill="black"/>
<path d="M81.9338 11.9959C81.4845 11.9959 81.1159 12.3645 81.1159 12.8138V38.0657C81.1159 38.5149 81.4807 38.8836 81.9338 38.8836H107.186C107.635 38.8836 108.004 38.5188 108.004 38.0657V12.8138C108.004 12.3645 107.639 11.9959 107.186 11.9959H81.9338ZM104.16 34.5713C104.16 34.8324 103.949 35.0397 103.691 35.0397H85.4282C85.1671 35.0397 84.9597 34.8285 84.9597 34.5713V16.3082C84.9597 16.0471 85.1709 15.8397 85.4282 15.8397H103.691C103.952 15.8397 104.16 16.0509 104.16 16.3082V34.5713Z" fill="black"/>
<path d="M100.32 20.4941C100.32 20.0448 99.9552 19.6762 99.5021 19.6762H89.6141C89.1648 19.6762 88.7962 20.041 88.7962 20.4941V30.3859C88.7962 30.8352 89.161 31.2038 89.6141 31.2038H99.5021C99.9514 31.2038 100.32 30.839 100.32 30.3859V20.4941Z" fill="black"/>
<path d="M12.8138 81.1159C12.3645 81.1159 11.9959 81.4845 11.9959 81.9338V107.186C11.9959 107.635 12.3607 108.004 12.8138 108.004H38.0656C38.5149 108.004 38.8836 107.639 38.8836 107.186V81.9338C38.8836 81.4845 38.5188 81.1159 38.0656 81.1159H12.8138ZM35.0397 103.691C35.0397 103.952 34.8285 104.16 34.5712 104.16H16.3082C16.0471 104.16 15.8397 103.949 15.8397 103.691V85.4282C15.8397 85.1671 16.0509 84.9597 16.3082 84.9597H34.5712C34.8324 84.9597 35.0397 85.1709 35.0397 85.4282V103.691Z" fill="black"/>
<path d="M31.2 89.6141C31.2 89.1648 30.8352 88.7962 30.3821 88.7962H20.4941C20.0448 88.7962 19.6762 89.161 19.6762 89.6141V99.5059C19.6762 99.9552 20.041 100.324 20.4941 100.324H30.3821C30.8314 100.324 31.2 99.959 31.2 99.5059V89.6141Z" fill="black"/>
</svg>
