<svg width="20" height="20" viewBox="0 0 20 20" fill="none" xmlns="http://www.w3.org/2000/svg">
<g id="Add User">
<g id="Group 3">
<mask id="mask0_8536_2080" style="mask-type:luminance" maskUnits="userSpaceOnUse" x="0" y="12" width="16" height="8">
<path id="Clip 2" fill-rule="evenodd" clip-rule="evenodd" d="M0 12.456H15.754V19.7949H0V12.456Z" fill="white"/>
</mask>
<g mask="url(#mask0_8536_2080)">
<path id="Fill 1" fill-rule="evenodd" clip-rule="evenodd" d="M7.877 13.956C3.646 13.956 1.5 14.683 1.5 16.115C1.5 17.561 3.646 18.295 7.877 18.295C12.108 18.295 14.254 17.568 14.254 16.137C14.254 14.689 12.108 13.956 7.877 13.956ZM7.877 19.795C5.929 19.795 0 19.795 0 16.115C0 12.835 4.495 12.456 7.877 12.456C9.825 12.456 15.754 12.456 15.754 16.137C15.754 19.416 11.259 19.795 7.877 19.795Z" fill="#FFEBD9"/>
</g>
</g>
<path id="Fill 4" fill-rule="evenodd" clip-rule="evenodd" d="M7.87709 1.5C5.77309 1.5 4.06009 3.213 4.06009 5.318C4.05609 6.337 4.44809 7.292 5.16309 8.013C5.87909 8.733 6.83309 9.132 7.84909 9.136L7.87709 9.886V9.136C9.98209 9.136 11.6951 7.423 11.6951 5.318C11.6951 3.213 9.98209 1.5 7.87709 1.5ZM7.87709 10.636H7.84609C6.42709 10.631 5.09709 10.074 4.10009 9.07C3.10209 8.065 2.55509 6.731 2.56009 5.315C2.56009 2.386 4.94509 0 7.87709 0C10.8101 0 13.1951 2.386 13.1951 5.318C13.1951 8.25 10.8101 10.636 7.87709 10.636Z" fill="#FFEBD9"/>
<path id="Fill 6" fill-rule="evenodd" clip-rule="evenodd" d="M17.2041 11.4297C16.7901 11.4297 16.4541 11.0937 16.4541 10.6797V6.6687C16.4541 6.2547 16.7901 5.9187 17.2041 5.9187C17.6181 5.9187 17.9541 6.2547 17.9541 6.6687V10.6797C17.9541 11.0937 17.6181 11.4297 17.2041 11.4297Z" fill="#FFEBD9"/>
<path id="Fill 8" fill-rule="evenodd" clip-rule="evenodd" d="M19.2502 9.4238H15.1602C14.7462 9.4238 14.4102 9.0878 14.4102 8.6738C14.4102 8.2598 14.7462 7.9238 15.1602 7.9238H19.2502C19.6642 7.9238 20.0002 8.2598 20.0002 8.6738C20.0002 9.0878 19.6642 9.4238 19.2502 9.4238Z" fill="#FFEBD9"/>
</g>
</svg>
