<svg width="24" height="24" viewBox="0 0 24 24" fill="none" xmlns="http://www.w3.org/2000/svg">
<g id="Micro">
<g id="Vector">
<path d="M0 23.197L0.803144 24.0001L2.96989 21.8334L2.16674 21.0302L0 23.197Z" fill="#1A0C00"/>
<path d="M0.00814342 23.189L2.17489 21.0379L2.96211 21.8412L0.803284 23.9841L0.00814342 23.189Z" fill="#1A0C00"/>
<path d="M12.3603 6.91846L2.03797 19.3343L4.66583 21.9622L17.0817 11.6398L12.3603 6.91846ZM4.66583 21.9622L17.0817 11.6398L4.66583 21.9622Z" fill="#1A0C00"/>
<path d="M2.04589 19.3264L12.3688 6.92558L17.0737 11.6477L4.66653 21.947L2.04589 19.3264Z" fill="#1A0C00"/>
<path d="M12.8069 5.64941L18.3508 11.1932C19.7346 11.2092 21.1198 10.7048 22.2051 9.69875L14.3014 1.79507C13.2954 2.88032 12.791 4.26557 12.8069 5.64941Z" fill="#1A0C00"/>
<path d="M18.3508 11.1821L12.8149 5.64149C12.8018 4.22408 13.3314 2.8581 14.3096 1.80285L22.1971 9.70663C21.1597 10.6526 19.8163 11.1824 18.4145 11.1824L18.3508 11.1821Z" fill="#1A0C00"/>
<path d="M22.3641 1.63611C20.501 -0.227073 17.6528 -0.496605 15.4976 0.815614L23.1845 8.5025C24.4968 6.34729 24.2272 3.49921 22.3641 1.63611Z" fill="#1A0C00"/>
<path d="M15.5056 0.807645C16.378 0.29277 17.384 0.0111454 18.4127 0.0111454C19.9027 0.0111454 21.3032 0.591036 22.3562 1.6439C24.1794 3.46724 24.5182 6.2781 23.1823 8.48436L15.5056 0.807645Z" fill="#1A0C00"/>
</g>
</g>
</svg>
