<svg width="24" height="24" viewBox="0 0 24 24" fill="none" xmlns="http://www.w3.org/2000/svg">
<g id="Resto">
<path id="Resto_2" d="M5.66933 20.9295L9.72997 15.6775L11.5874 18.2045L8.00727 23.0607C6.63615 24.9189 4.09898 22.9607 5.66933 20.9295ZM10.4116 8.96938C10.7984 7.62358 10.6206 6.47362 9.16746 4.76533L5.61659 0.209206C5.11267 -0.422027 3.92514 0.505031 4.42125 1.26959L7.26116 5.00074C7.79829 5.69655 6.80021 6.61736 6.24551 5.90071L3.30794 2.04249C2.76105 1.37376 1.63016 2.25707 2.20244 3.02163C3.03059 4.0841 4.31187 5.81947 5.14002 6.88194C5.71425 7.50484 4.84118 8.42773 4.27476 7.65067L1.35867 3.81744C0.930928 3.32162 0.231692 3.62994 0.0461402 4.2091C-0.153083 4.82783 0.337163 5.2799 0.671156 5.73822L3.92514 10.2214C4.93493 11.4693 6.06387 12.2089 7.3764 11.7901C7.57758 11.7256 7.82368 11.5943 8.08735 11.4214L16.8298 23.4586C17.3005 24.1065 18.2087 24.1752 18.7986 23.6523L18.9333 23.5336C19.5974 22.944 19.7048 21.8669 19.1365 21.1711L9.87842 9.82561C10.148 9.50478 10.3452 9.20062 10.4116 8.96938ZM12.8863 11.5943L14.3258 9.73186C12.4742 4.83616 19.3357 -1.68866 22.6619 1.31126C26.703 4.95907 20.697 13.7505 16.4762 11.5776L14.7711 13.888L12.8863 11.5943Z" fill="#1A0C00"/>
</g>
</svg>
