<svg width="36" height="36" viewBox="0 0 36 36" fill="none" xmlns="http://www.w3.org/2000/svg">
<g id="Loc">
<path id="Bleu" d="M36 18C36 27.9411 27.9411 36 18 36C8.05887 36 0 27.9411 0 18C0 8.05887 8.05887 0 18 0C27.9411 0 36 8.05887 36 18Z" fill="url(#paint0_linear_8526_2509)"/>
<circle id="Blanc" cx="18" cy="18" r="10.5" fill="#FFEBD9"/>
<path id="Bleu_2" d="M24 18C24 21.3137 21.3137 24 18 24C14.6863 24 12 21.3137 12 18C12 14.6863 14.6863 12 18 12C21.3137 12 24 14.6863 24 18Z" fill="url(#paint1_linear_8526_2509)"/>
</g>
<defs>
<linearGradient id="paint0_linear_8526_2509" x1="18" y1="1.74344e-06" x2="18" y2="36" gradientUnits="userSpaceOnUse">
<stop stop-color="#00E1FF"/>
<stop offset="1" stop-color="#4000FF"/>
</linearGradient>
<linearGradient id="paint1_linear_8526_2509" x1="18" y1="12" x2="18" y2="24" gradientUnits="userSpaceOnUse">
<stop stop-color="#00E1FF"/>
<stop offset="1" stop-color="#4000FF"/>
</linearGradient>
</defs>
</svg>
