<svg width="21" height="20" viewBox="0 0 21 20" fill="none" xmlns="http://www.w3.org/2000/svg">
<g id="Logout">
<path id="Fill 1" fill-rule="evenodd" clip-rule="evenodd" d="M9.31949 20H4.43349C1.98949 20 0.000488281 18.011 0.000488281 15.565V4.436C0.000488281 1.99 1.98949 0 4.43349 0H9.30849C11.7545 0 13.7445 1.99 13.7445 4.436V5.368C13.7445 5.782 13.4085 6.118 12.9945 6.118C12.5805 6.118 12.2445 5.782 12.2445 5.368V4.436C12.2445 2.816 10.9275 1.5 9.30849 1.5H4.43349C2.81649 1.5 1.50049 2.816 1.50049 4.436V15.565C1.50049 17.184 2.81649 18.5 4.43349 18.5H9.31949C10.9315 18.5 12.2445 17.188 12.2445 15.576V14.633C12.2445 14.219 12.5805 13.883 12.9945 13.883C13.4085 13.883 13.7445 14.219 13.7445 14.633V15.576C13.7445 18.016 11.7585 20 9.31949 20Z" fill="#FFEBD9"/>
<g id="Group 5">
<mask id="mask0_8536_460" style="mask-type:luminance" maskUnits="userSpaceOnUse" x="6" y="9" width="15" height="2">
<path id="Clip 4" fill-rule="evenodd" clip-rule="evenodd" d="M6.99609 9.25H20.537V10.75H6.99609V9.25Z" fill="white"/>
</mask>
<g mask="url(#mask0_8536_460)">
<path id="Fill 3" fill-rule="evenodd" clip-rule="evenodd" d="M19.7871 10.75H7.74609C7.33209 10.75 6.99609 10.414 6.99609 10C6.99609 9.586 7.33209 9.25 7.74609 9.25H19.7871C20.2011 9.25 20.5371 9.586 20.5371 10C20.5371 10.414 20.2011 10.75 19.7871 10.75Z" fill="#FFEBD9"/>
</g>
</g>
<g id="Group 8">
<mask id="mask1_8536_460" style="mask-type:luminance" maskUnits="userSpaceOnUse" x="16" y="6" width="5" height="8">
<path id="Clip 7" fill-rule="evenodd" clip-rule="evenodd" d="M16.1099 6.33525H20.5372V13.666H16.1099V6.33525Z" fill="white"/>
</mask>
<g mask="url(#mask1_8536_460)">
<path id="Fill 6" fill-rule="evenodd" clip-rule="evenodd" d="M16.8596 13.666C16.6676 13.666 16.4746 13.593 16.3286 13.445C16.0366 13.151 16.0376 12.677 16.3306 12.385L18.7246 10L16.3306 7.616C16.0376 7.324 16.0356 6.85 16.3286 6.556C16.6206 6.262 17.0946 6.262 17.3886 6.554L20.3166 9.469C20.4586 9.609 20.5376 9.801 20.5376 10C20.5376 10.199 20.4586 10.391 20.3166 10.531L17.3886 13.447C17.2426 13.593 17.0506 13.666 16.8596 13.666Z" fill="#FFEBD9"/>
</g>
</g>
</g>
</svg>
