<svg width="20" height="24" viewBox="0 0 20 24" fill="none" xmlns="http://www.w3.org/2000/svg">
<g id="Location">
<path id="Fill 1" fill-rule="evenodd" clip-rule="evenodd" d="M9.62565 7.91669C8.49982 7.91669 7.58398 8.83252 7.58398 9.95952C7.58398 11.0854 8.49982 12 9.62565 12C10.7515 12 11.6673 11.0854 11.6673 9.95952C11.6673 8.83252 10.7515 7.91669 9.62565 7.91669ZM9.62565 13.75C7.53498 13.75 5.83398 12.0502 5.83398 9.95952C5.83398 7.86769 7.53498 6.16669 9.62565 6.16669C11.7163 6.16669 13.4173 7.86769 13.4173 9.95952C13.4173 12.0502 11.7163 13.75 9.62565 13.75Z" fill="#FFEBD9"/>
<g id="Group 5">
<mask id="mask0_8536_403" style="mask-type:luminance" maskUnits="userSpaceOnUse" x="0" y="0" width="20" height="24">
<path id="Clip 4" fill-rule="evenodd" clip-rule="evenodd" d="M0 0.333344H19.2494V23.0833H0V0.333344Z" fill="white"/>
</mask>
<g mask="url(#mask0_8536_403)">
<path id="Fill 3" fill-rule="evenodd" clip-rule="evenodd" d="M9.62451 2.08334C5.28218 2.08334 1.74951 5.64984 1.74951 10.0318C1.74951 15.6073 8.31084 21.0393 9.62451 21.3287C10.9382 21.0382 17.4995 15.6062 17.4995 10.0318C17.4995 5.64984 13.9668 2.08334 9.62451 2.08334ZM9.62451 23.0833C7.53151 23.0833 -0.000488281 16.606 -0.000488281 10.0318C-0.000488281 4.68384 4.31735 0.333344 9.62451 0.333344C14.9317 0.333344 19.2495 4.68384 19.2495 10.0318C19.2495 16.606 11.7175 23.0833 9.62451 23.0833Z" fill="#FFEBD9"/>
</g>
</g>
</g>
</svg>
