<svg width="26" height="22" viewBox="0 0 26 22" fill="none" xmlns="http://www.w3.org/2000/svg">
<g id="Group 10">
<path id="Fill 1" fill-rule="evenodd" clip-rule="evenodd" d="M15.5327 5.53272C15.0497 5.53272 14.6577 5.14072 14.6577 4.65772V1.83322C14.6577 1.35022 15.0497 0.958221 15.5327 0.958221C16.0157 0.958221 16.4077 1.35022 16.4077 1.83322V4.65772C16.4077 5.14072 16.0157 5.53272 15.5327 5.53272Z" fill="#FFEBD9"/>
<path id="Fill 3" fill-rule="evenodd" clip-rule="evenodd" d="M15.5327 20.8315C15.0497 20.8315 14.6577 20.4395 14.6577 19.9565V17.5964C14.6577 17.1122 15.0497 16.7214 15.5327 16.7214C16.0157 16.7214 16.4077 17.1122 16.4077 17.5964V19.9565C16.4077 20.4395 16.0157 20.8315 15.5327 20.8315Z" fill="#FFEBD9"/>
<path id="Fill 5" fill-rule="evenodd" clip-rule="evenodd" d="M15.5327 14.4627C15.0497 14.4627 14.6577 14.0707 14.6577 13.5877V7.96323C14.6577 7.48023 15.0497 7.08823 15.5327 7.08823C16.0157 7.08823 16.4077 7.48023 16.4077 7.96323V13.5877C16.4077 14.0707 16.0157 14.4627 15.5327 14.4627Z" fill="#FFEBD9"/>
<g id="Group 9">
<mask id="mask0_8536_416" style="mask-type:luminance" maskUnits="userSpaceOnUse" x="0" y="0" width="26" height="22">
<path id="Clip 8" fill-rule="evenodd" clip-rule="evenodd" d="M0.833008 0.666656H25.9163V21.083H0.833008V0.666656Z" fill="white"/>
</mask>
<g mask="url(#mask0_8536_416)">
<path id="Fill 7" fill-rule="evenodd" clip-rule="evenodd" d="M2.58301 14.146V16.4082C2.58301 18.0205 3.91651 19.333 5.55568 19.333H21.1937C22.8328 19.333 24.1663 18.0205 24.1663 16.4082V14.146C22.7068 13.7622 21.6265 12.4415 21.6265 10.8758C21.6265 9.30899 22.7057 7.98949 24.1663 7.60565L24.1652 5.34115C24.1652 3.72882 22.8317 2.41632 21.1925 2.41632H5.55684C3.91767 2.41632 2.58417 3.72882 2.58417 5.34115L2.58301 7.69549C4.06117 8.05832 5.12284 9.32532 5.12284 10.8758C5.12284 12.4415 4.04251 13.7622 2.58301 14.146ZM21.1937 21.083H5.55567C2.95167 21.083 0.833008 18.9853 0.833008 16.4082V13.3842C0.833008 12.9012 1.22501 12.5092 1.70801 12.5092C2.62617 12.5092 3.37284 11.7765 3.37284 10.8758C3.37284 10.0008 2.65651 9.34049 1.70801 9.34049C1.47584 9.34049 1.25301 9.24832 1.08967 9.08382C0.925174 8.92049 0.833008 8.69649 0.833008 8.46549L0.834174 5.34115C0.834174 2.76399 2.95284 0.666321 5.55684 0.666321H21.1925C23.7965 0.666321 25.9152 2.76399 25.9152 5.34115L25.9163 8.36749C25.9163 8.59849 25.8242 8.82249 25.6597 8.98582C25.4963 9.15032 25.2735 9.24249 25.0413 9.24249C24.1232 9.24249 23.3765 9.97515 23.3765 10.8758C23.3765 11.7765 24.1232 12.5092 25.0413 12.5092C25.5243 12.5092 25.9163 12.9012 25.9163 13.3842V16.4082C25.9163 18.9853 23.7977 21.083 21.1937 21.083Z" fill="#FFEBD9"/>
</g>
</g>
</g>
</svg>
