<svg width="20" height="24" viewBox="0 0 20 24" fill="none" xmlns="http://www.w3.org/2000/svg">
<g id="Profile">
<g id="Group 3">
<mask id="mask0_8536_429" style="mask-type:luminance" maskUnits="userSpaceOnUse" x="0" y="14" width="20" height="10">
<path id="Clip 2" fill-rule="evenodd" clip-rule="evenodd" d="M0.666504 14.9121H19.1464V23.5151H0.666504V14.9121Z" fill="white"/>
</mask>
<g mask="url(#mask0_8536_429)">
<path id="Fill 1" fill-rule="evenodd" clip-rule="evenodd" d="M9.90767 16.6621C4.9365 16.6621 2.4165 17.5161 2.4165 19.2019C2.4165 20.9029 4.9365 21.7651 9.90767 21.7651C14.8777 21.7651 17.3965 20.9111 17.3965 19.2253C17.3965 17.5243 14.8777 16.6621 9.90767 16.6621ZM9.90767 23.5151C7.62217 23.5151 0.666504 23.5151 0.666504 19.2019C0.666504 15.3566 5.941 14.9121 9.90767 14.9121C12.1932 14.9121 19.1465 14.9121 19.1465 19.2253C19.1465 23.0706 13.8732 23.5151 9.90767 23.5151Z" fill="#FFEBD9"/>
</g>
</g>
<g id="Group 6">
<mask id="mask1_8536_429" style="mask-type:luminance" maskUnits="userSpaceOnUse" x="3" y="0" width="14" height="13">
<path id="Clip 5" fill-rule="evenodd" clip-rule="evenodd" d="M3.71143 0.333435H16.1015V12.7218H3.71143V0.333435Z" fill="white"/>
</mask>
<g mask="url(#mask1_8536_429)">
<path id="Fill 4" fill-rule="evenodd" clip-rule="evenodd" d="M9.90763 1.99898C7.4098 1.99898 5.37746 4.03014 5.37746 6.52798C5.3693 9.01764 7.38646 11.0476 9.8738 11.057L9.90763 11.89V11.057C12.4043 11.057 14.4355 9.02464 14.4355 6.52798C14.4355 4.03014 12.4043 1.99898 9.90763 1.99898ZM9.90763 12.7218H9.8703C6.4613 12.7113 3.6998 9.93114 3.71146 6.52448C3.71146 3.11198 6.49046 0.332977 9.90763 0.332977C13.3236 0.332977 16.1015 3.11198 16.1015 6.52798C16.1015 9.94398 13.3236 12.7218 9.90763 12.7218Z" fill="#FFEBD9"/>
</g>
</g>
</g>
</svg>
