<svg width="25" height="26" viewBox="0 0 25 26" fill="none" xmlns="http://www.w3.org/2000/svg">
<g id="Home">
<mask id="mask0_8536_2355" style="mask-type:luminance" maskUnits="userSpaceOnUse" x="0" y="0" width="25" height="26">
<path id="Clip 2" fill-rule="evenodd" clip-rule="evenodd" d="M0.333496 0.166901H24.2499V25.2561H0.333496V0.166901Z" fill="white"/>
</mask>
<g mask="url(#mask0_8536_2355)">
<path id="Fill 1" fill-rule="evenodd" clip-rule="evenodd" d="M14.0033 16.8398C15.408 16.8398 16.5513 17.975 16.5513 19.3703V22.959C16.5513 23.2588 16.7917 23.4992 17.0997 23.5062H19.3233C21.0757 23.5062 22.5002 22.0992 22.5002 20.3702V10.1922C22.492 9.59718 22.2085 9.03718 21.722 8.66501L14.0302 2.53068C12.9977 1.71284 11.5533 1.71284 10.5173 2.53301L2.878 8.66268C2.37283 9.04651 2.08933 9.60651 2.0835 10.212V20.3702C2.0835 22.0992 3.508 23.5062 5.26033 23.5062H7.505C7.82116 23.5062 8.07783 23.2553 8.07783 22.9473C8.07783 22.8797 8.086 22.812 8.1 22.7478V19.3703C8.1 17.9832 9.23633 16.8492 10.6305 16.8398H14.0033ZM19.3233 25.2562H17.0787C15.793 25.2258 14.8013 24.2167 14.8013 22.959V19.3703C14.8013 18.9398 14.4432 18.5898 14.0033 18.5898H10.6363C10.2058 18.5922 9.85 18.9433 9.85 19.3703V22.9473C9.85 23.0348 9.83833 23.1188 9.81383 23.1982C9.68783 24.3532 8.70083 25.2562 7.505 25.2562H5.26033C2.54316 25.2562 0.333496 23.064 0.333496 20.3702V10.2038C0.345163 9.04418 0.879496 7.98251 1.80233 7.28368L9.4265 1.16451C11.1053 -0.165491 13.4445 -0.165491 15.1198 1.16218L22.7988 7.28718C23.7007 7.97434 24.235 9.03368 24.2502 10.1793V20.3702C24.2502 23.064 22.0405 25.2562 19.3233 25.2562Z" fill="#FFEBD9"/>
</g>
</g>
</svg>
