<svg width="36" height="36" viewBox="0 0 36 36" fill="none" xmlns="http://www.w3.org/2000/svg">
<g id="LR 1">
<circle id="CLR 1" cx="18" cy="18" r="17.5" fill="#FFEBD9" stroke="url(#paint0_linear_8504_4339)"/>
<path id="Vector" d="M12.4607 25.8133L16.0137 21.2178L17.639 23.429L14.5064 27.6781C13.3066 29.3041 11.0866 27.5906 12.4607 25.8133ZM16.6102 15.3482C16.9486 14.1706 16.793 13.1644 15.5215 11.6697L12.4145 7.68306C11.9736 7.13073 10.9345 7.9419 11.3686 8.61089L13.8535 11.8756C14.3235 12.4845 13.4502 13.2902 12.9648 12.6631L10.3944 9.28718C9.91592 8.70204 8.92639 9.47493 9.42714 10.1439C10.1518 11.0736 11.2729 12.592 11.9975 13.5217C12.5 14.0667 11.736 14.8743 11.2404 14.1943L8.68884 10.8403C8.31456 10.4064 7.70273 10.6762 7.54037 11.183C7.36605 11.7243 7.79502 12.1199 8.08726 12.5209L10.9345 16.4438C11.8181 17.5356 12.8059 18.1828 13.9543 17.8164C14.1304 17.7599 14.3457 17.645 14.5764 17.4937L22.226 28.0262C22.6379 28.5932 23.4326 28.6533 23.9487 28.1958L24.0667 28.0919C24.6477 27.576 24.7417 26.6336 24.2444 26.0247L16.1436 16.0974C16.3795 15.8167 16.5521 15.5505 16.6102 15.3482ZM18.7755 17.645L20.0351 16.0154C18.4149 11.7316 24.4187 6.02242 27.3292 8.64735C30.8652 11.8392 25.6099 19.5317 21.9167 17.6304L20.4247 19.652L18.7755 17.645Z" fill="url(#paint1_linear_8504_4339)"/>
</g>
<defs>
<linearGradient id="paint0_linear_8504_4339" x1="18" y1="0" x2="18" y2="36" gradientUnits="userSpaceOnUse">
<stop stop-color="#FF7700"/>
<stop offset="1" stop-color="#FF0000"/>
</linearGradient>
<linearGradient id="paint1_linear_8504_4339" x1="18" y1="7.5" x2="18" y2="28.5" gradientUnits="userSpaceOnUse">
<stop stop-color="#FF7700"/>
<stop offset="1" stop-color="#FF0000"/>
</linearGradient>
</defs>
</svg>
