<svg width="20" height="21" viewBox="0 0 20 21" fill="none" xmlns="http://www.w3.org/2000/svg">
<g id="Setting">
<g id="Group 3">
<mask id="mask0_8536_1643" style="mask-type:luminance" maskUnits="userSpaceOnUse" x="0" y="0" width="20" height="21">
<path id="Clip 2" fill-rule="evenodd" clip-rule="evenodd" d="M0 0.00050354H19.2849V20.7215H0V0.00050354Z" fill="white"/>
</mask>
<g mask="url(#mask0_8536_1643)">
<path id="Fill 1" fill-rule="evenodd" clip-rule="evenodd" d="M5.20232 15.4405C5.43132 15.4405 5.66032 15.4695 5.88432 15.5295C6.56032 15.7115 7.14732 16.1635 7.49532 16.7705C7.72132 17.1515 7.84632 17.5965 7.85032 18.0505C7.85032 18.7005 8.37232 19.2215 9.01432 19.2215H10.2673C10.9063 19.2215 11.4283 18.7035 11.4313 18.0645C11.4273 17.3585 11.7033 16.6875 12.2083 16.1825C12.7063 15.6845 13.4023 15.3855 14.0983 15.4055C14.5543 15.4165 14.9933 15.5395 15.3803 15.7595C15.9373 16.0785 16.6483 15.8885 16.9703 15.3385L17.6343 14.2315C17.7823 13.9765 17.8253 13.6565 17.7463 13.3615C17.6683 13.0665 17.4723 12.8105 17.2083 12.6595C16.5903 12.3035 16.1493 11.7295 15.9663 11.0415C15.7853 10.3665 15.8843 9.6295 16.2373 9.0225C16.4673 8.6225 16.8043 8.2855 17.2083 8.0535C17.7503 7.7365 17.9403 7.0275 17.6253 6.4755C17.6123 6.4535 17.6003 6.4305 17.5903 6.4065L17.0043 5.3905C16.6853 4.8355 15.9753 4.6445 15.4183 4.9615C14.8163 5.3175 14.1003 5.4195 13.4123 5.2385C12.7253 5.0605 12.1493 4.6255 11.7903 4.0115C11.5603 3.6275 11.4353 3.1805 11.4313 2.7255C11.4403 2.3835 11.3203 2.0765 11.1023 1.8515C10.8853 1.6275 10.5803 1.5005 10.2673 1.5005H9.01432C8.70432 1.5005 8.41432 1.6215 8.19532 1.8395C7.97732 2.0585 7.85832 2.3495 7.86032 2.6595C7.83932 4.1215 6.64432 5.2985 5.19732 5.2985C4.73332 5.2935 4.28632 5.1685 3.89832 4.9365C3.35332 4.6265 2.64132 4.8175 2.32232 5.3725L1.64532 6.4855C1.33532 7.0235 1.52532 7.7345 2.07732 8.0555C2.89632 8.5295 3.40732 9.4135 3.40732 10.3615C3.40732 11.3095 2.89632 12.1925 2.07532 12.6675C1.52632 12.9855 1.33632 13.6925 1.65432 14.2425L2.28532 15.3305C2.44132 15.6115 2.69632 15.8145 2.99132 15.8975C3.28532 15.9795 3.60932 15.9445 3.87932 15.7945C4.27632 15.5615 4.73832 15.4405 5.20232 15.4405ZM10.2673 20.7215H9.01432C7.54532 20.7215 6.35032 19.5275 6.35032 18.0585C6.34832 17.8775 6.29632 17.6895 6.19932 17.5265C6.04232 17.2525 5.78832 17.0565 5.49532 16.9785C5.20432 16.9005 4.88532 16.9435 4.62332 17.0955C3.99532 17.4455 3.25632 17.5305 2.58032 17.3405C1.90532 17.1495 1.32232 16.6855 0.98032 16.0705L0.35532 14.9935C-0.37568 13.7255 0.0593197 12.1005 1.32532 11.3685C1.68432 11.1615 1.90732 10.7755 1.90732 10.3615C1.90732 9.9475 1.68432 9.5605 1.32532 9.3535C0.0583198 8.6175 -0.37568 6.9885 0.35432 5.7205L1.03232 4.6075C1.75332 3.3535 3.38332 2.9115 4.65432 3.6415C4.82732 3.7445 5.01532 3.7965 5.20632 3.7985C5.82932 3.7985 6.35032 3.2845 6.36032 2.6525C6.35632 1.9555 6.63132 1.2865 7.13232 0.781504C7.63532 0.277504 8.30332 0.00050354 9.01432 0.00050354H10.2673C10.9833 0.00050354 11.6793 0.294504 12.1783 0.805504C12.6763 1.3195 12.9513 2.0245 12.9303 2.7395C12.9323 2.9005 12.9853 3.0865 13.0813 3.2495C13.2403 3.5195 13.4913 3.7095 13.7893 3.7875C14.0873 3.8615 14.3993 3.8215 14.6643 3.6645C15.9443 2.9335 17.5733 3.3715 18.3043 4.6415L18.9273 5.7205C18.9433 5.7495 18.9573 5.7775 18.9693 5.8065C19.6313 7.0575 19.1893 8.6325 17.9593 9.3515C17.7803 9.4545 17.6353 9.5985 17.5353 9.7725C17.3803 10.0415 17.3373 10.3615 17.4153 10.6555C17.4953 10.9555 17.6863 11.2045 17.9553 11.3585C18.5623 11.7075 19.0153 12.2955 19.1963 12.9745C19.3773 13.6525 19.2783 14.3885 18.9253 14.9955L18.2613 16.1015C17.5303 17.3575 15.9013 17.7925 14.6343 17.0605C14.4653 16.9635 14.2703 16.9105 14.0763 16.9055H14.0703C13.7813 16.9055 13.4843 17.0285 13.2683 17.2435C13.0493 17.4625 12.9293 17.7545 12.9313 18.0645C12.9243 19.5335 11.7293 20.7215 10.2673 20.7215Z" fill="#FFEBD9"/>
</g>
</g>
<path id="Fill 4" fill-rule="evenodd" clip-rule="evenodd" d="M9.64528 8.47461C8.60528 8.47461 7.75928 9.32161 7.75928 10.3616C7.75928 11.4016 8.60528 12.2466 9.64528 12.2466C10.6853 12.2466 11.5313 11.4016 11.5313 10.3616C11.5313 9.32161 10.6853 8.47461 9.64528 8.47461ZM9.64528 13.7466C7.77828 13.7466 6.25928 12.2286 6.25928 10.3616C6.25928 8.49461 7.77828 6.97461 9.64528 6.97461C11.5123 6.97461 13.0313 8.49461 13.0313 10.3616C13.0313 12.2286 11.5123 13.7466 9.64528 13.7466Z" fill="#FFEBD9"/>
</g>
</svg>
