<svg width="70" height="70" viewBox="0 0 70 70" fill="none" xmlns="http://www.w3.org/2000/svg">
<g filter="url(#filter0_d_6619_5599)">
<rect x="15" y="15" width="40" height="40" rx="20" fill="url(#paint0_linear_6619_5599)"/>
<path fill-rule="evenodd" clip-rule="evenodd" d="M35.0001 27.9167C31.0942 27.9167 27.9167 31.0942 27.9167 35C27.9167 38.9059 31.0942 42.0834 35.0001 42.0834C38.9059 42.0834 42.0834 38.9059 42.0834 35C42.0834 31.0942 38.9059 27.9167 35.0001 27.9167ZM35.0001 43.3334C30.4051 43.3334 26.6667 39.595 26.6667 35C26.6667 30.405 30.4051 26.6667 35.0001 26.6667C39.5951 26.6667 43.3334 30.405 43.3334 35C43.3334 39.595 39.5951 43.3334 35.0001 43.3334Z" fill="#FFEBD9"/>
<path fill-rule="evenodd" clip-rule="evenodd" d="M34.9951 36.1442C34.6501 36.1442 34.3701 35.8642 34.3701 35.5192V31.8367C34.3701 31.4917 34.6501 31.2117 34.9951 31.2117C35.3401 31.2117 35.6201 31.4917 35.6201 31.8367V35.5192C35.6201 35.8642 35.3401 36.1442 34.9951 36.1442Z" fill="#FFEBD9"/>
<path fill-rule="evenodd" clip-rule="evenodd" d="M35.0033 38.9966C34.5424 38.9966 34.1658 38.6241 34.1658 38.1633C34.1658 37.7025 34.5349 37.33 34.9949 37.33H35.0033C35.4641 37.33 35.8366 37.7025 35.8366 38.1633C35.8366 38.6241 35.4641 38.9966 35.0033 38.9966Z" fill="#FFEBD9"/>
</g>
<defs>
<filter id="filter0_d_6619_5599" x="0" y="0" width="70" height="70" filterUnits="userSpaceOnUse" color-interpolation-filters="sRGB">
<feFlood flood-opacity="0" result="BackgroundImageFix"/>
<feColorMatrix in="SourceAlpha" type="matrix" values="0 0 0 0 0 0 0 0 0 0 0 0 0 0 0 0 0 0 127 0" result="hardAlpha"/>
<feOffset/>
<feGaussianBlur stdDeviation="7.5"/>
<feComposite in2="hardAlpha" operator="out"/>
<feColorMatrix type="matrix" values="0 0 0 0 0 0 0 0 0 0 0 0 0 0 0 0 0 0 0.5 0"/>
<feBlend mode="normal" in2="BackgroundImageFix" result="effect1_dropShadow_6619_5599"/>
<feBlend mode="normal" in="SourceGraphic" in2="effect1_dropShadow_6619_5599" result="shape"/>
</filter>
<linearGradient id="paint0_linear_6619_5599" x1="35" y1="15" x2="35" y2="55" gradientUnits="userSpaceOnUse">
<stop stop-color="#FF7700"/>
<stop offset="1" stop-color="#FF0000"/>
</linearGradient>
</defs>
</svg>
